<?xml version="1.0" encoding="UTF-8" standalone="no"?>
<!-- Created with Inkscape (http://www.inkscape.org/) -->

<svg
   width="360"
   height="180"
   viewBox="0 0 95.249998 47.625"
   version="1.1"
   id="svg5"
   xml:space="preserve"
   xmlns="http://www.w3.org/2000/svg"
   xmlns:svg="http://www.w3.org/2000/svg"><defs
     id="defs2" /><g
     id="layer1"><path
       style="display:inline;fill:#4ef6ff;fill-opacity:1;stroke-width:0.0365962;stroke-dasharray:none"
       d="m 14.213401,36.206731 c -1.269728,-0.158453 -2.147288,-0.885614 -2.682182,-2.222497 -0.554921,-1.386943 -0.645945,-3.394239 -0.258706,-5.705153 0.05772,-0.344455 0.147868,-0.813063 0.20033,-1.041352 0.160091,-0.696638 0.161944,-0.640831 -0.02288,-0.689086 -1.140393,-0.29773 -3.0969598,-1.14886 -4.1160782,-1.790542 -2.447133,-1.540823 -3.48071,-3.322818 -2.924537,-5.042206 0.436634,-1.349833 1.9021253,-2.698993 4.0309521,-3.710971 0.8413887,-0.39997 1.6416261,-0.700717 3.0249561,-1.136844 0.132737,-0.04185 0.170665,-0.06976 0.157213,-0.115701 -0.18092,-0.617869 -0.4269,-2.025838 -0.514305,-2.943833 -0.06303,-0.661999 -0.07275,-2.0351796 -0.01786,-2.5244326 0.184219,-1.6421448 0.682701,-2.8077898 1.48306,-3.4679642 0.867288,-0.7153793 2.103887,-0.8680627 3.57659,-0.441604 0.664655,0.1924669 1.549842,0.585688 2.270527,1.0086211 0.891001,0.5228821 2.060655,1.398387 2.936229,2.1978171 l 0.420194,0.383653 0.237501,-0.215686 c 2.26435,-2.0563585 4.084256,-3.1496522 5.900991,-3.544971 0.494898,-0.1076895 1.40896,-0.1156743 1.790394,-0.01564 1.04058,0.2728984 1.789292,0.9925768 2.244882,2.1578227 0.388782,0.9943773 0.536802,2.0319803 0.503201,3.5273829 -0.02688,1.196194 -0.162447,2.283053 -0.432227,3.465159 -0.06116,0.267994 -0.105756,0.491902 -0.0991,0.497574 0.0067,0.0057 0.258737,0.08806 0.56018,0.183084 2.860497,0.90172 5.119224,2.276484 6.113689,3.721067 0.232395,0.337583 0.488139,0.867039 0.577076,1.194698 0.09015,0.332127 0.09079,1.059933 0.0012,1.406737 -0.146626,0.567824 -0.569477,1.287368 -1.099105,1.870288 -1.053116,1.159083 -3.076476,2.310254 -5.452582,3.102194 -0.338424,0.112794 -0.619946,0.209429 -0.625607,0.214744 -0.0057,0.0053 0.03857,0.229746 0.09828,0.498735 0.483735,2.179009 0.561613,4.281091 0.217692,5.87594 -0.242547,1.124754 -0.757603,2.097591 -1.396506,2.637727 -0.28193,0.238348 -0.780054,0.50085 -1.138031,0.599723 -0.288678,0.07973 -1.22238,0.1129 -1.589618,0.05647 -1.768717,-0.271796 -3.87926,-1.473603 -5.948149,-3.387053 l -0.41273,-0.381722 -0.354581,0.327619 c -1.488976,1.375756 -3.226848,2.507778 -4.659289,3.034984 -0.925305,0.340556 -1.923076,0.499834 -2.601092,0.415221 z m 1.187505,-1.532764 c 1.242014,-0.249611 2.763081,-1.068313 4.256647,-2.291106 0.479037,-0.39219 1.11498,-0.965975 1.113775,-1.004914 -4.14e-4,-0.01347 -0.134178,-0.172477 -0.297248,-0.353344 -0.775954,-0.860634 -1.526442,-1.781629 -2.255391,-2.767801 -0.248813,-0.336613 -0.46449,-0.612023 -0.47928,-0.612023 -0.01479,0 -0.362028,-0.03326 -0.771637,-0.07392 -0.988254,-0.09809 -2.37421,-0.299191 -3.223061,-0.467667 -0.378358,-0.0751 -0.694549,-0.125813 -0.70265,-0.112706 -0.03181,0.05147 -0.242976,1.051551 -0.325667,1.542359 -0.16234,0.963556 -0.212264,1.639461 -0.192141,2.601373 0.01423,0.680372 0.03571,0.968818 0.09582,1.286887 0.142887,0.7561 0.381201,1.358784 0.693542,1.753925 0.420698,0.532223 1.106262,0.696097 2.087294,0.498936 z m 13.949776,0.04066 c 0.327063,-0.07711 0.508432,-0.180852 0.74455,-0.425875 0.447684,-0.464567 0.762936,-1.306631 0.914243,-2.442023 0.06727,-0.504795 0.05573,-1.905697 -0.02123,-2.575975 -0.09532,-0.830252 -0.344334,-2.191614 -0.424648,-2.321565 -0.02163,-0.035 -0.176853,-0.01522 -0.680421,0.08671 -1.143454,0.231442 -2.842905,0.483759 -3.749846,0.556738 l -0.320513,0.02579 -0.403976,0.564513 c -0.725092,1.013238 -1.440856,1.921007 -2.159205,2.738412 l -0.390916,0.444822 0.263173,0.249412 c 1.093063,1.035907 2.316447,1.920463 3.418233,2.471523 1.144103,0.572223 2.120464,0.790219 2.810553,0.62752 z m -7.163514,-4.813582 c 0.534965,-0.611283 1.690681,-2.057673 1.690709,-2.115938 3e-6,-0.0068 -0.937208,-0.01244 -2.082692,-0.01244 -1.145482,0 -2.082701,0.0057 -2.082708,0.01274 -3.3e-5,0.03526 1.176155,1.47303 1.538475,1.880624 0.228981,0.257594 0.448315,0.508341 0.487407,0.557214 0.03909,0.04887 0.07513,0.08886 0.08007,0.08886 0.0049,0 0.170879,-0.184977 0.368735,-0.41106 z m 2.183974,-3.644596 c 0.517948,-0.03387 0.591781,-0.04678 0.647429,-0.11318 0.03455,-0.04122 0.233077,-0.340944 0.441176,-0.66605 0.839821,-1.312019 1.688783,-2.792569 2.35424,-4.105686 L 28.17116,20.66674 27.867141,20.065587 c -0.856347,-1.6933 -2.740267,-4.83839 -2.944391,-4.915481 -0.150648,-0.0569 -1.85394,-0.121682 -3.18239,-0.121046 -1.20736,5.8e-4 -2.701849,0.05137 -3.051073,0.103703 -0.119733,0.01794 -0.155501,0.06103 -0.554889,0.668501 -0.619572,0.94237 -1.264404,2.016098 -1.795703,2.990075 -0.361456,0.662617 -0.937789,1.828643 -0.937789,1.897312 0,0.07189 0.702492,1.452393 1.113319,2.187841 0.446155,0.798691 1.119131,1.908404 1.610383,2.655464 l 0.448717,0.682378 0.158511,0.0222 c 0.630431,0.0883 4.39054,0.101579 5.639306,0.01991 z m -3.012225,-2.522348 c -1.362105,-0.188615 -2.44186,-1.242331 -2.672957,-2.608499 -0.05329,-0.315002 -0.0226,-0.983111 0.05888,-1.281822 0.161063,-0.590517 0.59007,-1.252849 1.047003,-1.616441 1.812553,-1.442294 4.469696,-0.539599 5.00448,1.700142 0.103065,0.431645 0.08302,1.208899 -0.0412,1.597077 -0.353147,1.103636 -1.207272,1.905937 -2.288494,2.149642 -0.329819,0.07434 -0.814252,0.100537 -1.107712,0.0599 z m -4.679158,2.318022 c 0,-0.01182 -0.174712,-0.302974 -0.388247,-0.647004 -0.456229,-0.735036 -1.061043,-1.783999 -1.420592,-2.463814 -0.140576,-0.265794 -0.266783,-0.483656 -0.280459,-0.484137 -0.07294,-0.0026 -1.179643,3.03243 -1.1235,3.081053 0.06038,0.05229 1.854551,0.35245 3.048373,0.509983 0.06029,0.008 0.121948,0.01693 0.13702,0.01994 0.01507,0.003 0.02741,-0.0042 0.02741,-0.01602 z m 10.851976,-0.107972 c 0.62382,-0.0855 1.448758,-0.225902 2.041563,-0.347457 0.288865,-0.05923 0.53139,-0.107694 0.538945,-0.107694 0.08592,0 -0.392246,-1.35485 -0.925703,-2.622912 -0.23481,-0.558159 -0.208831,-0.55228 -0.438512,-0.09922 -0.302496,0.596693 -0.977055,1.774438 -1.576194,2.751953 -0.163788,0.267224 -0.297795,0.493895 -0.297795,0.503715 0,0.0098 0.05344,0.0092 0.11875,-0.0015 0.06531,-0.01063 0.307839,-0.04524 0.538946,-0.07692 z M 12.270326,24.400875 c 0.302688,-0.919407 0.643143,-1.80735 1.103469,-2.877958 0.190484,-0.443019 0.346334,-0.820303 0.346334,-0.838409 0,-0.01811 -0.162533,-0.411984 -0.361184,-0.875287 -0.451117,-1.052114 -0.783333,-1.916144 -1.089559,-2.833724 -0.130781,-0.391877 -0.24308,-0.718173 -0.249554,-0.725104 -0.0065,-0.0069 -0.304804,0.08086 -0.662956,0.195084 -2.7585721,0.879802 -4.7585649,2.151465 -5.4021036,3.434842 -0.2054756,0.409769 -0.2533846,0.645394 -0.1983536,0.975533 0.1998796,1.199117 1.8402837,2.596973 4.2404215,3.613437 0.5175767,0.219194 1.8621987,0.68959 1.9694337,0.688976 0.03886,-2.21e-4 0.12733,-0.220598 0.304052,-0.75739 z m 19.972442,0.484957 c 3.047044,-1.034804 5.148116,-2.536974 5.506817,-3.937122 0.14802,-0.577774 -0.09089,-1.142353 -0.790226,-1.867428 -0.960019,-0.995352 -2.575866,-1.886698 -4.690772,-2.587558 -0.358928,-0.118946 -0.677453,-0.211299 -0.707835,-0.205229 -0.0365,0.0073 -0.150319,0.289995 -0.335452,0.833157 -0.301752,0.88531 -0.761393,2.051597 -1.16641,2.959629 l -0.252613,0.566349 0.0831,0.182693 c 0.04571,0.100482 0.176857,0.388224 0.291448,0.639427 0.425669,0.933132 0.871496,2.079877 1.388575,3.571652 0.0087,0.02512 0.03045,0.04567 0.04831,0.04567 0.01787,0 0.299142,-0.09056 0.625056,-0.201243 z M 14.867787,18.427206 c 0.332599,-0.636895 0.986765,-1.774452 1.44189,-2.507368 0.201023,-0.323719 0.349359,-0.58858 0.329635,-0.58858 -0.09562,0 -1.582907,0.233543 -2.115333,0.332163 -0.544263,0.100813 -1.025584,0.207004 -1.051012,0.231878 -0.04385,0.0429 1.062022,3.017995 1.121097,3.016044 0.0117,-3.87e-4 0.134868,-0.218248 0.273723,-0.484137 z m 14.197343,0.250073 c 0.241058,-0.537274 1.04841,-2.74948 1.015458,-2.782433 -0.06805,-0.06805 -3.147064,-0.598714 -3.195104,-0.550674 -0.0088,0.0088 0.05622,0.128633 0.144393,0.266404 0.45403,0.709476 1.476583,2.478587 1.776264,3.073103 0.06331,0.125601 0.123786,0.228366 0.134385,0.228366 0.01061,0 0.06667,-0.105645 0.124604,-0.234766 z M 14.048977,14.255913 c 0.901469,-0.177803 1.98731,-0.34255 3.032707,-0.460132 0.37178,-0.04182 0.685981,-0.08751 0.698224,-0.10153 0.01225,-0.01403 0.184002,-0.247472 0.38169,-0.518772 0.679638,-0.932715 1.404249,-1.830873 2.149713,-2.664579 l 0.43861,-0.490528 -0.199014,-0.1805561 C 18.601079,8.070851 16.831962,7.0035931 15.325833,6.6876755 c -0.413525,-0.086738 -1.006687,-0.088198 -1.295125,-0.00319 -0.7388,0.2177431 -1.211385,1.0143522 -1.43384,2.4169349 -0.08947,0.564136 -0.08821,2.1309576 0.0023,2.8500136 0.08183,0.650121 0.179001,1.216395 0.319767,1.86347 0.148753,0.683787 0.136347,0.649984 0.229242,0.624633 0.04328,-0.01181 0.448645,-0.09444 0.900809,-0.183625 z m 16.459888,0.116206 C 31.021429,12.14167 31.131194,10.277936 30.836826,8.8036064 30.623268,7.7340211 30.186829,6.9753961 29.641394,6.7256872 28.753771,6.3193205 27.109897,6.792719 25.360956,7.9583585 24.54199,8.5041844 23.966325,8.9643324 23.100255,9.7654104 l -0.283325,0.2620656 0.387704,0.432169 c 0.659981,0.735673 1.536671,1.829953 2.172081,2.711179 0.440922,0.611498 0.325939,0.543497 1.058861,0.626199 1.246423,0.140644 2.755057,0.383948 3.599056,0.580433 0.403501,0.09394 0.451543,0.0934 0.474233,-0.0053 z m -6.70193,-0.849523 C 23.033132,12.519324 22.599506,11.989711 22.08979,11.425348 l -0.310366,-0.343641 -0.178345,0.197362 c -0.545319,0.603469 -1.75157,2.058284 -1.860206,2.243527 -0.01418,0.02418 0.674591,0.03654 2.036408,0.03654 1.36632,0 2.048367,-0.01228 2.029654,-0.03654 z"
       id="path248" /><ellipse
       style="fill:#ffffff;fill-opacity:1;stroke-width:0.264999;stroke-dasharray:none"
       id="path1420"
       cx="22.362501"
       cy="31.024309"
       rx="22.240011"
       ry="8.682745" /><ellipse
       style="fill:#ffffff;fill-opacity:1;stroke-width:0.264999;stroke-dasharray:none"
       id="path1578"
       cx="32.923969"
       cy="21.783026"
       rx="13.404939"
       ry="7.2610083" /><text
       xml:space="preserve"
       style="font-size:11.2889px;text-align:center;text-anchor:middle;white-space:pre;inline-size:49.6724;display:inline;fill:#ffffff;fill-opacity:1;stroke-width:0.264999;stroke-dasharray:none"
       x="52.604229"
       y="9.9521523"
       id="text1634"
       transform="translate(18.095745,10.771277)"><tspan
         x="52.604229"
         y="9.9521523"
         id="tspan7452"><tspan
           style="font-style:italic;font-family:'Comic Sans MS';-inkscape-font-specification:'Comic Sans MS Italic';stroke-width:0.265"
           id="tspan7450">Reactive
</tspan></tspan><tspan
         x="52.604229"
         y="24.52619"
         id="tspan7456"><tspan
           style="font-style:italic;font-family:'Comic Sans MS';-inkscape-font-specification:'Comic Sans MS Italic';stroke-width:0.265"
           id="tspan7454">Weather</tspan></tspan></text></g></svg>
