<?xml version="1.0" encoding="UTF-8" standalone="no"?>
<!-- Created with Inkscape (http://www.inkscape.org/) -->

<svg
   width="180"
   height="180"
   viewBox="0 0 47.624999 47.625"
   version="1.1"
   id="svg7461"
   xmlns="http://www.w3.org/2000/svg"
   xmlns:svg="http://www.w3.org/2000/svg">
  <defs
     id="defs7458" />
  <g
     id="layer1">
    <path
       style="opacity:1;fill:#ffffff;fill-opacity:1;stroke:none;stroke-width:3.81988;stroke-linecap:round;stroke-dasharray:none;stroke-opacity:1"
       d="M 5.5240075,41.888937 H 43.545285 c 0,0 2.494212,-3.660135 3.580789,-9.098798 C 48.415007,26.33863 46.000817,22.931271 43.903359,20.220668 41.217767,16.749997 36.668868,15.757843 31.549617,18.907447 25.699815,22.506516 24.656588,26.224 24.656588,26.224 c 0,0 -3.662649,-3.931035 -11.519982,-4.140626 -5.7007264,-0.152066 -10.2242036,3.159105 -12.32566296,8.282864 -0.97635285,2.380537 -1.10600238,4.702834 -0.18469323,7.563195 0.94432239,2.931833 4.89776759,3.959504 4.89776759,3.959504 z"
       id="path17842" />
    <path
       style="opacity:1;fill:#ffffff;fill-opacity:1;stroke:none;stroke-width:1.88377;stroke-linecap:round;stroke-dasharray:none;stroke-opacity:1"
       d="m 8.535132,20.848795 h 18.750193 c 0,0 1.230021,-1.804996 1.765866,-4.487073 0.635638,-3.181562 -0.55492,-4.861901 -1.589282,-6.198635 C 26.13751,8.4515257 23.89422,7.9622449 21.369661,9.5154722 c -2.88483,1.7748808 -3.399297,3.6081588 -3.399297,3.6081588 0,0 -1.806236,-1.93859 -5.681079,-2.04195 -2.8113135,-0.07499 -5.0420661,1.557912 -6.0784009,4.084694 -0.4814884,1.173962 -0.545425,2.319203 -0.091081,3.72979 0.4656926,1.445834 2.4153342,1.95263 2.4153342,1.95263 z"
       id="path19167" />
  </g>
</svg>
