<?xml version="1.0" encoding="UTF-8" standalone="no"?>
<!-- Created with Inkscape (http://www.inkscape.org/) -->

<svg
   width="180"
   height="180"
   viewBox="0 0 47.624999 47.625"
   version="1.1"
   id="svg7461"
   xmlns="http://www.w3.org/2000/svg"
   xmlns:svg="http://www.w3.org/2000/svg">
  <defs
     id="defs7458" />
  <g
     id="layer1">
    <path
       style="fill:#e5e5e5;fill-opacity:1;stroke:none;stroke-width:3.81988;stroke-linecap:round;stroke-dasharray:none;stroke-opacity:1"
       d="M 5.5240187,41.888865 H 43.545296 c 0,0 2.494212,-3.660135 3.580789,-9.098798 1.288933,-6.451509 -1.125257,-9.858868 -3.222715,-12.569471 -2.685592,-3.470671 -7.234491,-4.462825 -12.353742,-1.313221 -5.849802,3.599069 -6.893029,7.316553 -6.893029,7.316553 0,0 -3.662649,-3.931035 -11.519982,-4.140626 -5.7007263,-0.152066 -10.2242043,3.159105 -12.32566333,8.282864 -0.976353,2.380537 -1.1060023,4.702834 -0.184693,7.563195 0.94432203,2.931833 4.89776703,3.959504 4.89776703,3.959504 z"
       id="path17842" />
    <path
       style="fill:#e5e5e5;fill-opacity:1;stroke:none;stroke-width:1.88377;stroke-linecap:round;stroke-dasharray:none;stroke-opacity:1"
       d="M 8.5351427,20.848723 H 27.285336 c 0,0 1.230021,-1.804996 1.765866,-4.487073 0.635638,-3.181562 -0.55492,-4.861901 -1.589282,-6.198635 -1.324399,-1.7115608 -3.567689,-2.2008417 -6.092248,-0.6476148 -2.88483,1.7748808 -3.399297,3.6081588 -3.399297,3.6081588 0,0 -1.806236,-1.93859 -5.681079,-2.04195 -2.8113143,-0.07499 -5.0420663,1.557912 -6.0784013,4.084694 -0.481488,1.173962 -0.545425,2.319203 -0.09108,3.72979 0.465693,1.445834 2.415334,1.95263 2.415334,1.95263 z"
       id="path19167" />
  </g>
</svg>
