<?xml version="1.0" encoding="UTF-8" standalone="no"?>
<!-- Created with Inkscape (http://www.inkscape.org/) -->

<svg
   width="180"
   height="180"
   viewBox="0 0 47.624999 47.625"
   version="1.1"
   id="svg7461"
   xmlns="http://www.w3.org/2000/svg"
   xmlns:svg="http://www.w3.org/2000/svg">
  <defs
     id="defs7458" />
  <g
     id="layer1">
    <path
       style="opacity:1;fill:#f5f5f5;fill-opacity:1;stroke:none;stroke-width:3.81988;stroke-linecap:round;stroke-dasharray:none;stroke-opacity:1"
       d="M 5.5240075,29.188932 H 43.545285 c 0,0 2.494212,-3.660135 3.580789,-9.098798 C 48.415007,13.638625 46.000817,10.231266 43.903359,7.5206645 41.217767,4.0499947 36.668868,3.0578404 31.549617,6.2074434 c -5.849802,3.5990679 -6.893029,7.3165516 -6.893029,7.3165516 0,0 -3.662649,-3.9310347 -11.519982,-4.1406254 C 7.4358796,9.2313036 2.9124024,12.542474 0.81094304,17.666233 -0.16540981,20.04677 -0.29505934,22.369067 0.62624981,25.229428 1.5705722,28.161261 5.5240174,29.188932 5.5240174,29.188932 Z"
       id="path17842" />
    <path
       style="fill:none;fill-opacity:1;stroke:#9ee4f5;stroke-width:0.661458;stroke-linecap:round;stroke-dasharray:none;stroke-opacity:1"
       d="M 9.3094776,36.395707 11.091448,29.745299"
       id="path15509" />
    <path
       style="fill:none;fill-opacity:1;stroke:#9ee4f5;stroke-width:0.661458;stroke-linecap:round;stroke-dasharray:none;stroke-opacity:1"
       d="m 18.716392,36.395707 1.781971,-6.650408"
       id="path15511" />
    <path
       style="fill:none;fill-opacity:1;stroke:#9ee4f5;stroke-width:0.661458;stroke-linecap:round;stroke-dasharray:none;stroke-opacity:1"
       d="m 28.123306,36.395707 1.781971,-6.650408"
       id="path15513" />
    <path
       style="fill:none;fill-opacity:1;stroke:#9ee4f5;stroke-width:0.661458;stroke-linecap:round;stroke-dasharray:none;stroke-opacity:1"
       d="m 37.530221,36.395707 1.781971,-6.650408"
       id="path15515" />
    <path
       style="fill:none;fill-opacity:1;stroke:#9ee4f5;stroke-width:0.661458;stroke-linecap:round;stroke-dasharray:none;stroke-opacity:1"
       d="m 14.774638,39.286841 1.781971,-6.650408"
       id="path15517" />
    <path
       style="fill:none;fill-opacity:1;stroke:#9ee4f5;stroke-width:0.661458;stroke-linecap:round;stroke-dasharray:none;stroke-opacity:1"
       d="m 24.181552,39.286841 1.781971,-6.650408"
       id="path15519" />
    <path
       style="fill:none;fill-opacity:1;stroke:#9ee4f5;stroke-width:0.661458;stroke-linecap:round;stroke-dasharray:none;stroke-opacity:1"
       d="m 33.588466,39.286841 1.781971,-6.650408"
       id="path15521" />
    <path
       style="fill:none;fill-opacity:1;stroke:#9ee4f5;stroke-width:0.661458;stroke-linecap:round;stroke-dasharray:none;stroke-opacity:1"
       d="m 11.003008,42.465209 1.781971,-6.650408"
       id="path15525" />
    <path
       style="fill:none;fill-opacity:1;stroke:#9ee4f5;stroke-width:0.661458;stroke-linecap:round;stroke-dasharray:none;stroke-opacity:1"
       d="m 20.409922,42.465209 1.781971,-6.650408"
       id="path15527" />
    <path
       style="fill:none;fill-opacity:1;stroke:#9ee4f5;stroke-width:0.661458;stroke-linecap:round;stroke-dasharray:none;stroke-opacity:1"
       d="m 29.816836,42.465209 1.781971,-6.650408"
       id="path15529" />
    <path
       style="fill:none;fill-opacity:1;stroke:#9ee4f5;stroke-width:0.661458;stroke-linecap:round;stroke-dasharray:none;stroke-opacity:1"
       d="m 39.223751,42.465209 1.781971,-6.650408"
       id="path15531" />
    <path
       style="fill:none;fill-opacity:1;stroke:#9ee4f5;stroke-width:0.661458;stroke-linecap:round;stroke-dasharray:none;stroke-opacity:1"
       d="M 5.249639,39.286841 7.03161,32.636433"
       id="path15533" />
  </g>
</svg>
