<?xml version="1.0" encoding="UTF-8" standalone="no"?>
<!-- Created with Inkscape (http://www.inkscape.org/) -->

<svg
   width="180"
   height="180"
   viewBox="0 0 47.624999 47.625"
   version="1.1"
   id="svg7461"
   xmlns="http://www.w3.org/2000/svg"
   xmlns:svg="http://www.w3.org/2000/svg">
  <defs
     id="defs7458" />
  <g
     id="layer1">
    <path
       style="fill:none;stroke:#ffffff;stroke-width:4.7625;stroke-linecap:round;stroke-linejoin:miter;stroke-dasharray:none"
       d="m 2.3812499,20.096292 c 0,0 3.967767,-2.72599 7.3190018,-2.624437 3.3512353,0.101552 6.0441063,2.654181 8.7879063,2.654181 2.753983,0 6.735822,-2.624437 9.908593,-2.624437 3.67543,0 5.767461,2.645469 9.626459,2.645469 3.858999,0 7.129094,-2.505461 7.129094,-2.505461"
       id="path474" />
    <path
       style="fill:none;stroke:#ffffff;stroke-width:4.7625;stroke-linecap:round;stroke-linejoin:miter;stroke-dasharray:none"
       d="m 2.3812499,30.431583 c 0,0 3.967767,-2.72599 7.3190018,-2.624437 3.3512353,0.101552 6.0441063,2.654181 8.7879063,2.654181 2.753983,0 6.735822,-2.624437 9.908593,-2.624437 3.67543,0 5.767461,2.645469 9.626459,2.645469 3.858999,0 7.129094,-2.505461 7.129094,-2.505461"
       id="path1128" />
    <path
       style="fill:none;stroke:#ffffff;stroke-width:4.7625;stroke-linecap:round;stroke-linejoin:miter;stroke-dasharray:none"
       d="m 2.3812499,40.766874 c 0,0 3.967767,-2.72599 7.3190018,-2.624437 3.3512353,0.101552 6.0441063,2.654181 8.7879063,2.654181 2.753983,0 6.735822,-2.624437 9.908593,-2.624437 3.67543,0 5.767461,2.645469 9.626459,2.645469 3.858999,0 7.129094,-2.505461 7.129094,-2.505461"
       id="path1130" />
    <path
       style="fill:none;stroke:#ffffff;stroke-width:4.7625;stroke-linecap:round;stroke-linejoin:miter;stroke-dasharray:none"
       d="m 2.3812499,9.7610013 c 0,0 3.967767,-2.7259881 7.3190018,-2.6244351 3.3512353,0.101552 6.0441063,2.6541791 8.7879063,2.6541791 2.753983,0 6.735822,-2.6244351 9.908593,-2.6244351 3.67543,0 5.767461,2.6454671 9.626459,2.6454671 3.858999,0 7.129094,-2.5054591 7.129094,-2.5054591"
       id="path1132" />
  </g>
</svg>
