<?xml version="1.0" encoding="UTF-8" standalone="no"?>
<!-- Created with Inkscape (http://www.inkscape.org/) -->

<svg
   width="180"
   height="180"
   viewBox="0 0 47.624999 47.625"
   version="1.1"
   id="svg7461"
   xmlns="http://www.w3.org/2000/svg"
   xmlns:svg="http://www.w3.org/2000/svg">
  <defs
     id="defs7458" />
  <g
     id="layer1">
    <path
       style="fill:#dbdbdb;fill-opacity:1;stroke:none;stroke-width:3.81988;stroke-linecap:round;stroke-dasharray:none;stroke-opacity:1"
       d="M 5.5240075,29.188932 H 43.545285 c 0,0 2.494212,-3.660135 3.580789,-9.098798 C 48.415007,13.638625 46.000817,10.231266 43.903359,7.5206645 41.217767,4.0499947 36.668868,3.0578404 31.549617,6.2074434 c -5.849802,3.5990679 -6.893029,7.3165516 -6.893029,7.3165516 0,0 -3.662649,-3.9310347 -11.519982,-4.1406254 C 7.4358796,9.2313036 2.9124024,12.542474 0.81094304,17.666233 -0.16540981,20.04677 -0.29505934,22.369067 0.62624981,25.229428 1.5705722,28.161261 5.5240174,29.188932 5.5240174,29.188932 Z"
       id="path17842" />
    <path
       style="fill:none;fill-opacity:1;stroke:#8dccdb;stroke-width:0.661458;stroke-linecap:round;stroke-dasharray:none;stroke-opacity:1"
       d="M 5.2078011,38.455142 7.3618034,30.416296"
       id="path10656" />
    <path
       style="fill:none;fill-opacity:1;stroke:#8dccdb;stroke-width:0.661458;stroke-linecap:round;stroke-dasharray:none;stroke-opacity:1"
       d="m 14.878012,38.455142 2.154002,-8.038846"
       id="path12110" />
    <path
       style="fill:none;fill-opacity:1;stroke:#8dccdb;stroke-width:0.661458;stroke-linecap:round;stroke-dasharray:none;stroke-opacity:1"
       d="m 24.548225,38.455142 2.154002,-8.038846"
       id="path12112" />
    <path
       style="fill:none;fill-opacity:1;stroke:#8dccdb;stroke-width:0.661458;stroke-linecap:round;stroke-dasharray:none;stroke-opacity:1"
       d="m 34.218437,38.455142 2.154002,-8.038846"
       id="path12114" />
    <path
       style="fill:none;fill-opacity:1;stroke:#8dccdb;stroke-width:0.661458;stroke-linecap:round;stroke-dasharray:none;stroke-opacity:1"
       d="M 9.0080536,42.191183 11.162055,34.152337"
       id="path14514" />
    <path
       style="fill:none;fill-opacity:1;stroke:#8dccdb;stroke-width:0.661458;stroke-linecap:round;stroke-dasharray:none;stroke-opacity:1"
       d="m 18.678265,42.191183 2.154002,-8.038846"
       id="path14516" />
    <path
       style="fill:none;fill-opacity:1;stroke:#8dccdb;stroke-width:0.661458;stroke-linecap:round;stroke-dasharray:none;stroke-opacity:1"
       d="M 28.348478,42.191183 30.50248,34.152337"
       id="path14518" />
    <path
       style="fill:none;fill-opacity:1;stroke:#8dccdb;stroke-width:0.661458;stroke-linecap:round;stroke-dasharray:none;stroke-opacity:1"
       d="m 38.01869,42.191183 2.154002,-8.038846"
       id="path14520" />
    <path
       style="fill:#c9dfe5;fill-opacity:1;stroke:none;stroke-width:0.661458;stroke-linecap:round"
       id="path22029"
       d="m 5.0522404,42.221222 c -0.00598,0 -0.1140741,-0.737933 -0.1195998,-0.740222 -0.00553,-0.0023 -0.6037562,0.443075 -0.6079854,0.438846 -0.00423,-0.0042 0.4411346,-0.60246 0.4388458,-0.607986 -0.00229,-0.0055 -0.7402215,-0.113618 -0.7402215,-0.119599 0,-0.006 0.7379327,-0.114074 0.7402215,-0.1196 0.00229,-0.0055 -0.443075,-0.603756 -0.4388458,-0.607985 0.00423,-0.0042 0.6024598,0.441134 0.6079854,0.438845 0.00553,-0.0023 0.1136188,-0.740221 0.1195997,-0.740221 0.00598,0 0.1140742,0.737933 0.1195998,0.740221 0.00553,0.0023 0.6037563,-0.443075 0.6079854,-0.438845 0.00423,0.0042 -0.4411346,0.602459 -0.4388458,0.607985 0.00229,0.0055 0.7402215,0.113619 0.7402215,0.1196 0,0.006 -0.7379327,0.114074 -0.7402215,0.119599 -0.00229,0.0055 0.443075,0.603757 0.4388459,0.607986 -0.00423,0.0042 -0.6024598,-0.441135 -0.6079855,-0.438846 -0.00553,0.0023 -0.1136188,0.740222 -0.1195997,0.740222 z"
       transform="translate(-0.20310513,-1.112917)" />
    <path
       style="fill:#c9dfe5;fill-opacity:1;stroke:none;stroke-width:0.661458;stroke-linecap:round;stroke-dasharray:none"
       id="path22031"
       d="m 5.0522404,42.221222 c -0.00598,0 -0.1140741,-0.737933 -0.1195998,-0.740222 -0.00553,-0.0023 -0.6037562,0.443075 -0.6079854,0.438846 -0.00423,-0.0042 0.4411346,-0.60246 0.4388458,-0.607986 -0.00229,-0.0055 -0.7402215,-0.113618 -0.7402215,-0.119599 0,-0.006 0.7379327,-0.114074 0.7402215,-0.1196 0.00229,-0.0055 -0.443075,-0.603756 -0.4388458,-0.607985 0.00423,-0.0042 0.6024598,0.441134 0.6079854,0.438845 0.00553,-0.0023 0.1136188,-0.740221 0.1195997,-0.740221 0.00598,0 0.1140742,0.737933 0.1195998,0.740221 0.00553,0.0023 0.6037563,-0.443075 0.6079854,-0.438845 0.00423,0.0042 -0.4411346,0.602459 -0.4388458,0.607985 0.00229,0.0055 0.7402215,0.113619 0.7402215,0.1196 0,0.006 -0.7379327,0.114074 -0.7402215,0.119599 -0.00229,0.0055 0.443075,0.603757 0.4388459,0.607986 -0.00423,0.0042 -0.6024598,-0.441135 -0.6079855,-0.438846 -0.00553,0.0023 -0.1136188,0.740222 -0.1195997,0.740222 z"
       transform="translate(3.5035636,2.5388142)" />
    <path
       style="fill:#c9dfe5;fill-opacity:1;stroke:none;stroke-width:0.661458;stroke-linecap:round"
       id="path22033"
       d="m 5.0522404,42.221222 c -0.00598,0 -0.1140741,-0.737933 -0.1195998,-0.740222 -0.00553,-0.0023 -0.6037562,0.443075 -0.6079854,0.438846 -0.00423,-0.0042 0.4411346,-0.60246 0.4388458,-0.607986 -0.00229,-0.0055 -0.7402215,-0.113618 -0.7402215,-0.119599 0,-0.006 0.7379327,-0.114074 0.7402215,-0.1196 0.00229,-0.0055 -0.443075,-0.603756 -0.4388458,-0.607985 0.00423,-0.0042 0.6024598,0.441134 0.6079854,0.438845 0.00553,-0.0023 0.1136188,-0.740221 0.1195997,-0.740221 0.00598,0 0.1140742,0.737933 0.1195998,0.740221 0.00553,0.0023 0.6037563,-0.443075 0.6079854,-0.438845 0.00423,0.0042 -0.4411346,0.602459 -0.4388458,0.607985 0.00229,0.0055 0.7402215,0.113619 0.7402215,0.1196 0,0.006 -0.7379327,0.114074 -0.7402215,0.119599 -0.00229,0.0055 0.443075,0.603757 0.4388459,0.607986 -0.00423,0.0042 -0.6024598,-0.441135 -0.6079855,-0.438846 -0.00553,0.0023 -0.1136188,0.740222 -0.1195997,0.740222 z"
       transform="translate(9.5459413,-1.112917)" />
    <path
       style="fill:#c9dfe5;fill-opacity:1;stroke:none;stroke-width:0.661458;stroke-linecap:round;stroke-dasharray:none"
       id="path22035"
       d="m 5.0522404,42.221222 c -0.00598,0 -0.1140741,-0.737933 -0.1195998,-0.740222 -0.00553,-0.0023 -0.6037562,0.443075 -0.6079854,0.438846 -0.00423,-0.0042 0.4411346,-0.60246 0.4388458,-0.607986 -0.00229,-0.0055 -0.7402215,-0.113618 -0.7402215,-0.119599 0,-0.006 0.7379327,-0.114074 0.7402215,-0.1196 0.00229,-0.0055 -0.443075,-0.603756 -0.4388458,-0.607985 0.00423,-0.0042 0.6024598,0.441134 0.6079854,0.438845 0.00553,-0.0023 0.1136188,-0.740221 0.1195997,-0.740221 0.00598,0 0.1140742,0.737933 0.1195998,0.740221 0.00553,0.0023 0.6037563,-0.443075 0.6079854,-0.438845 0.00423,0.0042 -0.4411346,0.602459 -0.4388458,0.607985 0.00229,0.0055 0.7402215,0.113619 0.7402215,0.1196 0,0.006 -0.7379327,0.114074 -0.7402215,0.119599 -0.00229,0.0055 0.443075,0.603757 0.4388459,0.607986 -0.00423,0.0042 -0.6024598,-0.441135 -0.6079855,-0.438846 -0.00553,0.0023 -0.1136188,0.740222 -0.1195997,0.740222 z"
       transform="translate(13.25261,2.5388142)" />
    <path
       style="fill:#c9dfe5;fill-opacity:1;stroke:none;stroke-width:0.661458;stroke-linecap:round"
       id="path22037"
       d="m 5.0522404,42.221222 c -0.00598,0 -0.1140741,-0.737933 -0.1195998,-0.740222 -0.00553,-0.0023 -0.6037562,0.443075 -0.6079854,0.438846 -0.00423,-0.0042 0.4411346,-0.60246 0.4388458,-0.607986 -0.00229,-0.0055 -0.7402215,-0.113618 -0.7402215,-0.119599 0,-0.006 0.7379327,-0.114074 0.7402215,-0.1196 0.00229,-0.0055 -0.443075,-0.603756 -0.4388458,-0.607985 0.00423,-0.0042 0.6024598,0.441134 0.6079854,0.438845 0.00553,-0.0023 0.1136188,-0.740221 0.1195997,-0.740221 0.00598,0 0.1140742,0.737933 0.1195998,0.740221 0.00553,0.0023 0.6037563,-0.443075 0.6079854,-0.438845 0.00423,0.0042 -0.4411346,0.602459 -0.4388458,0.607985 0.00229,0.0055 0.7402215,0.113619 0.7402215,0.1196 0,0.006 -0.7379327,0.114074 -0.7402215,0.119599 -0.00229,0.0055 0.443075,0.603757 0.4388459,0.607986 -0.00423,0.0042 -0.6024598,-0.441135 -0.6079855,-0.438846 -0.00553,0.0023 -0.1136188,0.740222 -0.1195997,0.740222 z"
       transform="translate(19.294987,-1.112917)" />
    <path
       style="fill:#c9dfe5;fill-opacity:1;stroke:none;stroke-width:0.661458;stroke-linecap:round;stroke-dasharray:none"
       id="path22039"
       d="m 5.0522404,42.221222 c -0.00598,0 -0.1140741,-0.737933 -0.1195998,-0.740222 -0.00553,-0.0023 -0.6037562,0.443075 -0.6079854,0.438846 -0.00423,-0.0042 0.4411346,-0.60246 0.4388458,-0.607986 -0.00229,-0.0055 -0.7402215,-0.113618 -0.7402215,-0.119599 0,-0.006 0.7379327,-0.114074 0.7402215,-0.1196 0.00229,-0.0055 -0.443075,-0.603756 -0.4388458,-0.607985 0.00423,-0.0042 0.6024598,0.441134 0.6079854,0.438845 0.00553,-0.0023 0.1136188,-0.740221 0.1195997,-0.740221 0.00598,0 0.1140742,0.737933 0.1195998,0.740221 0.00553,0.0023 0.6037563,-0.443075 0.6079854,-0.438845 0.00423,0.0042 -0.4411346,0.602459 -0.4388458,0.607985 0.00229,0.0055 0.7402215,0.113619 0.7402215,0.1196 0,0.006 -0.7379327,0.114074 -0.7402215,0.119599 -0.00229,0.0055 0.443075,0.603757 0.4388459,0.607986 -0.00423,0.0042 -0.6024598,-0.441135 -0.6079855,-0.438846 -0.00553,0.0023 -0.1136188,0.740222 -0.1195997,0.740222 z"
       transform="translate(23.052432,2.5388142)" />
    <path
       style="fill:#c9dfe5;fill-opacity:1;stroke:none;stroke-width:0.661458;stroke-linecap:round"
       id="path22041"
       d="m 5.0522404,42.221222 c -0.00598,0 -0.1140741,-0.737933 -0.1195998,-0.740222 -0.00553,-0.0023 -0.6037562,0.443075 -0.6079854,0.438846 -0.00423,-0.0042 0.4411346,-0.60246 0.4388458,-0.607986 -0.00229,-0.0055 -0.7402215,-0.113618 -0.7402215,-0.119599 0,-0.006 0.7379327,-0.114074 0.7402215,-0.1196 0.00229,-0.0055 -0.443075,-0.603756 -0.4388458,-0.607985 0.00423,-0.0042 0.6024598,0.441134 0.6079854,0.438845 0.00553,-0.0023 0.1136188,-0.740221 0.1195997,-0.740221 0.00598,0 0.1140742,0.737933 0.1195998,0.740221 0.00553,0.0023 0.6037563,-0.443075 0.6079854,-0.438845 0.00423,0.0042 -0.4411346,0.602459 -0.4388458,0.607985 0.00229,0.0055 0.7402215,0.113619 0.7402215,0.1196 0,0.006 -0.7379327,0.114074 -0.7402215,0.119599 -0.00229,0.0055 0.443075,0.603757 0.4388459,0.607986 -0.00423,0.0042 -0.6024598,-0.441135 -0.6079855,-0.438846 -0.00553,0.0023 -0.1136188,0.740222 -0.1195997,0.740222 z"
       transform="translate(28.891705,-1.112917)" />
    <path
       style="fill:#c9dfe5;fill-opacity:1;stroke:none;stroke-width:0.661458;stroke-linecap:round;stroke-dasharray:none"
       id="path22043"
       d="m 5.0522404,42.221222 c -0.00598,0 -0.1140741,-0.737933 -0.1195998,-0.740222 -0.00553,-0.0023 -0.6037562,0.443075 -0.6079854,0.438846 -0.00423,-0.0042 0.4411346,-0.60246 0.4388458,-0.607986 -0.00229,-0.0055 -0.7402215,-0.113618 -0.7402215,-0.119599 0,-0.006 0.7379327,-0.114074 0.7402215,-0.1196 0.00229,-0.0055 -0.443075,-0.603756 -0.4388458,-0.607985 0.00423,-0.0042 0.6024598,0.441134 0.6079854,0.438845 0.00553,-0.0023 0.1136188,-0.740221 0.1195997,-0.740221 0.00598,0 0.1140742,0.737933 0.1195998,0.740221 0.00553,0.0023 0.6037563,-0.443075 0.6079854,-0.438845 0.00423,0.0042 -0.4411346,0.602459 -0.4388458,0.607985 0.00229,0.0055 0.7402215,0.113619 0.7402215,0.1196 0,0.006 -0.7379327,0.114074 -0.7402215,0.119599 -0.00229,0.0055 0.443075,0.603757 0.4388459,0.607986 -0.00423,0.0042 -0.6024598,-0.441135 -0.6079855,-0.438846 -0.00553,0.0023 -0.1136188,0.740222 -0.1195997,0.740222 z"
       transform="translate(32.750703,2.5388142)" />
  </g>
</svg>
