<?xml version="1.0" encoding="UTF-8" standalone="no"?>
<!-- Created with Inkscape (http://www.inkscape.org/) -->

<svg
   width="180"
   height="180"
   viewBox="0 0 47.624999 47.625"
   version="1.1"
   id="svg7461"
   inkscape:version="1.2.1 (9c6d41e410, 2022-07-14)"
   sodipodi:docname="w-mostly-clear-night.svg"
   inkscape:export-filename="..\..\..\Documents\React\reactive-weather\src\assets\icons\w-cloudy-day.svg"
   inkscape:export-xdpi="96"
   inkscape:export-ydpi="96"
   xmlns:inkscape="http://www.inkscape.org/namespaces/inkscape"
   xmlns:sodipodi="http://sodipodi.sourceforge.net/DTD/sodipodi-0.dtd"
   xmlns="http://www.w3.org/2000/svg"
   xmlns:svg="http://www.w3.org/2000/svg">
  <sodipodi:namedview
     id="namedview7463"
     pagecolor="#001024"
     bordercolor="#000000"
     borderopacity="0.25"
     inkscape:showpageshadow="2"
     inkscape:pageopacity="0"
     inkscape:pagecheckerboard="0"
     inkscape:deskcolor="#d1d1d1"
     inkscape:document-units="px"
     showgrid="false"
     showguides="false"
     inkscape:zoom="2.605383"
     inkscape:cx="127.62039"
     inkscape:cy="90.197871"
     inkscape:window-width="1366"
     inkscape:window-height="697"
     inkscape:window-x="-8"
     inkscape:window-y="-8"
     inkscape:window-maximized="1"
     inkscape:current-layer="layer1" />
  <defs
     id="defs7458">
    <clipPath
       clipPathUnits="userSpaceOnUse"
       id="clipPath21347">
      <path
         style="color:#000000;fill:#ffffff;stroke-width:1;stroke-linecap:round;-inkscape-stroke:none"
         d="m 35.388671,-19.527344 c -21.078457,0 -38.3632803,17.284824 -38.3632803,38.363281 0,21.078459 17.2848233,38.365235 38.3632803,38.365235 21.078457,0 38.365234,-17.286776 38.365234,-38.365235 0,-21.078457 -17.286777,-38.363281 -38.365234,-38.363281 z m 0,18.5195315 c 11.069085,0 19.84375,8.7746657 19.84375,19.8437495 0,11.069086 -8.774665,19.843749 -19.84375,19.843749 -11.069084,0 -19.843749,-8.774663 -19.843749,-19.843749 0,-11.0690838 8.774665,-19.8437495 19.843749,-19.8437495 z"
         id="path21349" />
    </clipPath>
  </defs>
  <g
     inkscape:label="Capa 1"
     inkscape:groupmode="layer"
     id="layer1">
    <circle
       style="opacity:1;fill:#9ba8b6;fill-opacity:1;stroke:none;stroke-width:1.52665;stroke-linecap:round;stroke-dasharray:none;stroke-opacity:1"
       id="path19337"
       cx="23.8125"
       cy="23.8125"
       r="18.520834"
       inkscape:label="path19337"
       clip-path="url(#clipPath21347)" />
    <path
       style="fill:#e5e5e5;fill-opacity:1;stroke:none;stroke-width:1.52665;stroke-linecap:round;stroke-dasharray:none;stroke-opacity:1"
       d="M 6.2023081,45.280648 H 21.7 c 0,0 1.016655,-1.434292 1.45955,-3.565533 0.525377,-2.528144 -0.458661,-3.863381 -1.313597,-4.925581 -1.094663,-1.360047 -2.94882,-1.748841 -5.035456,-0.51461 -2.384413,1.410362 -2.809638,2.867127 -2.809638,2.867127 0,0 -1.492917,-1.540449 -4.6956109,-1.622581 -2.32365,-0.05959 -4.167445,1.237954 -5.024012,3.245794 -0.397967,0.932858 -0.450812,1.842893 -0.07528,2.963779 0.384912,1.148893 1.996358,1.551605 1.996358,1.551605 z"
       id="path17842"
       sodipodi:nodetypes="ccssscsssc" />
    <path
       style="fill:#e5e5e5;fill-opacity:1;stroke:none;stroke-width:1.58618;stroke-linecap:round;stroke-dasharray:none;stroke-opacity:1"
       d="m 27.130544,37.099324 h 15.267704 c 0,0 1.001568,-1.571613 1.437891,-3.906902 0.51758,-2.770191 -0.451856,-4.233265 -1.294104,-5.397162 -1.078418,-1.490259 -2.905059,-1.916277 -4.960729,-0.56388 -2.349029,1.545392 -2.767943,3.141631 -2.767943,3.141631 0,0 -1.470762,-1.687935 -4.625928,-1.77793 -2.289166,-0.0653 -4.105599,1.356478 -4.949455,3.556551 -0.392061,1.02217 -0.444122,2.019333 -0.07417,3.247534 0.379199,1.25889 1.966733,1.700158 1.966734,1.700158 z"
       id="path18168"
       sodipodi:nodetypes="ccssscsssc" />
  </g>
</svg>
