<?xml version="1.0" encoding="UTF-8" standalone="no"?>
<!-- Created with Inkscape (http://www.inkscape.org/) -->

<svg
   width="180"
   height="180"
   viewBox="0 0 47.624999 47.625"
   version="1.1"
   id="svg7461"
   xmlns="http://www.w3.org/2000/svg"
   xmlns:svg="http://www.w3.org/2000/svg">
  <defs
     id="defs7458" />
  <g
     id="layer1">
    <path
       style="opacity:1;fill:#cccccc;fill-opacity:1;stroke:none;stroke-width:3.81988;stroke-linecap:round;stroke-dasharray:none;stroke-opacity:1"
       d="M 5.5240075,29.188932 H 43.545285 c 0,0 2.494212,-3.660135 3.580789,-9.098798 C 48.415007,13.638625 46.000817,10.231266 43.903359,7.5206645 41.217767,4.0499947 36.668868,3.0578404 31.549617,6.2074434 c -5.849802,3.5990679 -6.893029,7.3165516 -6.893029,7.3165516 0,0 -3.662649,-3.9310347 -11.519982,-4.1406254 C 7.4358796,9.2313036 2.9124024,12.542474 0.81094304,17.666233 -0.16540981,20.04677 -0.29505934,22.369067 0.62624981,25.229428 1.5705722,28.161261 5.5240174,29.188932 5.5240174,29.188932 Z"
       id="path17842" />
    <path
       style="fill:#ebebeb;stroke:#8cd8ff;stroke-width:1.5875;stroke-linecap:round;stroke-dasharray:none;stroke-opacity:1"
       d="M 7.3618017,30.416298 4.1585178,42.371117"
       id="path5427" />
    <path
       style="fill:#ebebeb;stroke:#8cd8ff;stroke-width:1.5875;stroke-linecap:round;stroke-dasharray:none;stroke-opacity:1"
       d="M 36.372437,30.416298 33.169153,42.371117"
       id="path5792" />
    <path
       style="fill:#ebebeb;stroke:#8cd8ff;stroke-width:1.5875;stroke-linecap:round;stroke-dasharray:none;stroke-opacity:1"
       d="M 26.702225,30.416298 23.498941,42.371117"
       id="path5794" />
    <path
       style="fill:#ebebeb;stroke:#8cd8ff;stroke-width:1.5875;stroke-linecap:round;stroke-dasharray:none;stroke-opacity:1"
       d="M 17.032013,30.416298 13.828729,42.371117"
       id="path5796" />
    <path
       style="fill:#ebebeb;stroke:#8cd8ff;stroke-width:1.5875;stroke-linecap:round;stroke-dasharray:none;stroke-opacity:1"
       d="M 11.065969,34.120464 7.8626847,46.075283"
       id="path5798" />
    <path
       style="fill:#ebebeb;stroke:#8cd8ff;stroke-width:1.5875;stroke-linecap:round;stroke-dasharray:none;stroke-opacity:1"
       d="M 40.076606,34.120464 36.873322,46.075283"
       id="path5800" />
    <path
       style="fill:#ebebeb;stroke:#8cd8ff;stroke-width:1.5875;stroke-linecap:round;stroke-dasharray:none;stroke-opacity:1"
       d="M 30.406394,34.120464 27.20311,46.075283"
       id="path5802" />
    <path
       style="fill:#ebebeb;stroke:#8cd8ff;stroke-width:1.5875;stroke-linecap:round;stroke-dasharray:none;stroke-opacity:1"
       d="M 20.736182,34.120464 17.532898,46.075283"
       id="path5804" />
  </g>
</svg>
