<?xml version="1.0" encoding="UTF-8" standalone="no"?>
<!-- Created with Inkscape (http://www.inkscape.org/) -->

<svg
   width="180"
   height="180"
   viewBox="0 0 47.624999 47.625"
   version="1.1"
   id="svg7461"
   xmlns="http://www.w3.org/2000/svg"
   xmlns:svg="http://www.w3.org/2000/svg">
  <defs
     id="defs7458" />
  <g
     id="layer1">
    <path
       style="fill:#c2c2c2;fill-opacity:1;stroke:none;stroke-width:3.81988;stroke-linecap:round;stroke-dasharray:none;stroke-opacity:1"
       d="M 5.5240075,29.188932 H 43.545285 c 0,0 2.494212,-3.660135 3.580789,-9.098798 C 48.415007,13.638625 46.000817,10.231266 43.903359,7.5206645 41.217767,4.0499947 36.668868,3.0578404 31.549617,6.2074434 c -5.849802,3.5990679 -6.893029,7.3165516 -6.893029,7.3165516 0,0 -3.662649,-3.9310347 -11.519982,-4.1406254 C 7.4358796,9.2313036 2.9124024,12.542474 0.81094304,17.666233 -0.16540981,20.04677 -0.29505934,22.369067 0.62624981,25.229428 1.5705722,28.161261 5.5240174,29.188932 5.5240174,29.188932 Z"
       id="path17842" />
    <path
       style="fill:none;fill-opacity:1;stroke:#7ec3e5;stroke-width:1.32292;stroke-linecap:round;stroke-dasharray:none;stroke-opacity:1"
       d="M 5.2078011,38.455142 7.3618034,30.416296"
       id="path10656" />
    <path
       style="fill:none;fill-opacity:1;stroke:#7ec3e5;stroke-width:1.32292;stroke-linecap:round;stroke-dasharray:none;stroke-opacity:1"
       d="m 14.878012,38.455142 2.154002,-8.038846"
       id="path12110" />
    <path
       style="fill:none;fill-opacity:1;stroke:#7ec3e5;stroke-width:1.32292;stroke-linecap:round;stroke-dasharray:none;stroke-opacity:1"
       d="m 24.548225,38.455142 2.154002,-8.038846"
       id="path12112" />
    <path
       style="fill:none;fill-opacity:1;stroke:#7ec3e5;stroke-width:1.32292;stroke-linecap:round;stroke-dasharray:none;stroke-opacity:1"
       d="m 34.218437,38.455142 2.154002,-8.038846"
       id="path12114" />
    <path
       style="fill:none;fill-opacity:1;stroke:#7ec3e5;stroke-width:1.32292;stroke-linecap:round;stroke-dasharray:none;stroke-opacity:1"
       d="M 9.0080536,42.191183 11.162055,34.152337"
       id="path14514" />
    <path
       style="fill:none;fill-opacity:1;stroke:#7ec3e5;stroke-width:1.32292;stroke-linecap:round;stroke-dasharray:none;stroke-opacity:1"
       d="m 18.678265,42.191183 2.154002,-8.038846"
       id="path14516" />
    <path
       style="fill:none;fill-opacity:1;stroke:#7ec3e5;stroke-width:1.32292;stroke-linecap:round;stroke-dasharray:none;stroke-opacity:1"
       d="M 28.348478,42.191183 30.50248,34.152337"
       id="path14518" />
    <path
       style="fill:none;fill-opacity:1;stroke:#7ec3e5;stroke-width:1.32292;stroke-linecap:round;stroke-dasharray:none;stroke-opacity:1"
       d="m 38.01869,42.191183 2.154002,-8.038846"
       id="path14520" />
  </g>
</svg>
