<?xml version="1.0" encoding="UTF-8" standalone="no"?>
<!-- Created with Inkscape (http://www.inkscape.org/) -->

<svg
   width="180"
   height="180"
   viewBox="0 0 47.624999 47.625"
   version="1.1"
   id="svg7461"
   xmlns="http://www.w3.org/2000/svg"
   xmlns:svg="http://www.w3.org/2000/svg">
  <defs
     id="defs7458" />
  <g
     id="layer1">
    <path
       style="fill:#b2b2b2;fill-opacity:1;stroke:none;stroke-width:3.81988;stroke-linecap:round;stroke-dasharray:none;stroke-opacity:1"
       d="M 5.5240075,29.188932 H 43.545285 c 0,0 2.494212,-3.660135 3.580789,-9.098798 C 48.415007,13.638625 46.000817,10.231266 43.903359,7.5206645 41.217767,4.0499947 36.668868,3.0578404 31.549617,6.2074434 c -5.849802,3.5990679 -6.893029,7.3165516 -6.893029,7.3165516 0,0 -3.662649,-3.9310347 -11.519982,-4.1406254 C 7.4358796,9.2313036 2.9124024,12.542474 0.81094304,17.666233 -0.16540981,20.04677 -0.29505934,22.369067 0.62624981,25.229428 1.5705722,28.161261 5.5240174,29.188932 5.5240174,29.188932 Z"
       id="path17842" />
    <path
       style="fill:#cccccc;stroke:#7ec2e5;stroke-width:1.5875;stroke-linecap:round;stroke-dasharray:none;stroke-opacity:1"
       d="m 11.091448,30.274466 -2.61032,9.741847"
       id="path10791" />
    <path
       style="fill:#cccccc;stroke:#7ec2e5;stroke-width:1.5875;stroke-linecap:round;stroke-dasharray:none;stroke-opacity:1"
       d="m 39.312192,30.274466 -2.61032,9.741847"
       id="path10793" />
    <path
       style="fill:#cccccc;stroke:#7ec2e5;stroke-width:1.5875;stroke-linecap:round;stroke-dasharray:none;stroke-opacity:1"
       d="m 29.905277,30.274466 -2.61032,9.741847"
       id="path10795" />
    <path
       style="fill:#cccccc;stroke:#7ec2e5;stroke-width:1.5875;stroke-linecap:round;stroke-dasharray:none;stroke-opacity:1"
       d="m 20.498363,30.274466 -2.61032,9.741847"
       id="path10797" />
    <path
       style="fill:#cccccc;stroke:#7ec2e5;stroke-width:1.5875;stroke-linecap:round;stroke-dasharray:none;stroke-opacity:1"
       d="m 12.783549,36.345812 -2.61032,9.741847"
       id="path10799" />
    <path
       style="fill:#cccccc;stroke:#7ec2e5;stroke-width:1.5875;stroke-linecap:round;stroke-dasharray:none;stroke-opacity:1"
       d="m 41.004293,36.345812 -2.61032,9.741847"
       id="path10801" />
    <path
       style="fill:#cccccc;stroke:#7ec2e5;stroke-width:1.5875;stroke-linecap:round;stroke-dasharray:none;stroke-opacity:1"
       d="m 31.597378,36.345812 -2.61032,9.741847"
       id="path10803" />
    <path
       style="fill:#cccccc;stroke:#7ec2e5;stroke-width:1.5875;stroke-linecap:round;stroke-dasharray:none;stroke-opacity:1"
       d="m 22.190464,36.345812 -2.61032,9.741847"
       id="path10805" />
    <path
       style="fill:#cccccc;stroke:#7ec2e5;stroke-width:1.5875;stroke-linecap:round;stroke-dasharray:none;stroke-opacity:1"
       d="m 7.0315074,33.168166 -2.61032,9.741847"
       id="path10807" />
    <path
       style="fill:#cccccc;stroke:#7ec2e5;stroke-width:1.5875;stroke-linecap:round;stroke-dasharray:none;stroke-opacity:1"
       d="m 35.252252,33.168166 -2.61032,9.741847"
       id="path10809" />
    <path
       style="fill:#cccccc;stroke:#7ec2e5;stroke-width:1.5875;stroke-linecap:round;stroke-dasharray:none;stroke-opacity:1"
       d="m 25.845337,33.168166 -2.61032,9.741847"
       id="path10811" />
    <path
       style="fill:#cccccc;stroke:#7ec2e5;stroke-width:1.5875;stroke-linecap:round;stroke-dasharray:none;stroke-opacity:1"
       d="m 16.438423,33.168166 -2.61032,9.741847"
       id="path10813" />
  </g>
</svg>
